<svg viewBox="0 0 48 48" class="${className}" xmlns="http://www.w3.org/2000/svg" fill-rule="evenodd" clip-rule="evenodd"
  stroke-linejoin="round" stroke-miterlimit="2">
  <path d="M48 4c0-2.208-1.792-4-4-4H4C1.792 0 0 1.792 0 4v40c0 2.208 1.792 4 4 4h40c2.208 0 4-1.792 4-4V4z"
    fill="#010818"></path>
  <path
    d="M33.268 23.681l4.789 6.129h5.277l-7.82-9.624L42.672 11h-4.963l-4.389 5.743L29.384 11h-4.998l6.583 9.186-7.158 9.624h5.155l4.302-6.129zM14.296 11.009c-2.638.066-4.831.98-6.578 2.741C5.972 15.512 5.066 17.723 5 20.384v16.952h3.694v-7.534h5.602c2.641-.068 4.84-.989 6.599-2.763 1.759-1.773 2.672-3.991 2.739-6.654-.067-2.662-.98-4.873-2.739-6.634-1.759-1.762-3.958-2.675-6.599-2.742zM8.694 26.077v-5.692c.039-1.609.583-2.943 1.634-4.003 1.05-1.059 2.373-1.608 3.968-1.648 1.615.04 2.95.589 4.005 1.648 1.055 1.06 1.601 2.394 1.64 4.003-.039 1.628-.585 2.975-1.64 4.039-1.055 1.063-2.39 1.614-4.005 1.653H8.694z"
    fill="#f4f7fb"></path>
</svg>